# xmcd CD database file
#
# Track frame offsets:
#	150
#	22883
#	47844
#	65096
#	94503
#	117148
#	139048
#	157582
#	178828
#	197967
#	225231
#	243096
#	258116
#	277816
#	302315
#
# Disc length: 4374 seconds
#
# Revision: 0
# Processed by: cddbd v1.5.2PL0 Copyright (c) Steve Scherf et al.
# Submitted via: CDex 1.51
#
DISCID=b011140f
DTITLE=Boom Boom Johnson - Boom Boom Johnson
DYEAR=1999
DGENRE=Blues
TTITLE0=Take a Ride 
TTITLE1=I Want You Baby
TTITLE2=Too Late
TTITLE3=Little Red Roster
TTITLE4=Things Gonna Have to Change
TTITLE5=It's Hard to Get Along With You 
TTITLE6=Mary Had a Little Lamb
TTITLE7=Lily May Medley
TTITLE8=Easy 
TTITLE9=T-Bone Shuffle
TTITLE10=I Can't Come Back
TTITLE11=Hard To Understand
TTITLE12=Welfare
TTITLE13=That Will Never Due
TTITLE14=The Sky's Crying
EXTD=YEAR: 1999
EXTT0=
EXTT1=
EXTT2=
EXTT3=
EXTT4=
EXTT5=
EXTT6=
EXTT7=
EXTT8=
EXTT9=
EXTT10=
EXTT11=
EXTT12=
EXTT13=
EXTT14=
PLAYORDER=
